<?xml version="1.0" standalone="no"?>
<!DOCTYPE svg PUBLIC "-//W3C//DTD SVG 20010904//EN"
 "http://www.w3.org/TR/2001/REC-SVG-20010904/DTD/svg10.dtd">
<svg version="1.0" xmlns="http://www.w3.org/2000/svg"
 width="30.000000pt" height="32.000000pt" viewBox="0 0 30.000000 32.000000"
 preserveAspectRatio="xMidYMid meet">

<g transform="translate(0.000000,32.000000) scale(0.100000,-0.100000)"
fill="#000000" stroke="none">
<path d="M2 163 l-2 -163 65 0 c64 0 91 16 37 22 -20 2 -28 9 -30 27 -2 13
-12 26 -23 28 -10 3 -19 13 -19 22 0 9 -4 21 -10 27 -5 5 -11 52 -13 104 -2
64 -4 42 -5 -67z"/>
<path d="M200 313 c8 -3 27 -17 43 -31 23 -22 27 -33 27 -83 0 -40 -5 -63 -19
-80 -18 -22 -18 -24 3 -71 38 -85 46 -65 46 112 l0 160 -57 -1 c-32 0 -51 -3
-43 -6z"/>
</g>
</svg>
